HIERARCHY
ROOT Hips
{
    OFFSET   0.000000   0.000000   0.000000
    CHANNELS 6 Xposition Yposition Zposition Zrotation Xrotation Yrotation
    JOINT Chest
    {
        OFFSET   0.000000   8.007230   0.000000
        CHANNELS 3 Zrotation Xrotation Yrotation
        JOINT Chest2
        {
            OFFSET   0.000000  22.077100   0.000000
            CHANNELS 3 Zrotation Xrotation Yrotation
            JOINT Neck
            {
                OFFSET   0.000000  23.254800  -0.000021
                CHANNELS 3 Zrotation Xrotation Yrotation
                JOINT Head
                {
                    OFFSET   0.000000  14.370000   1.956610
                    CHANNELS 3 Zrotation Xrotation Yrotation
                    End Site
                    {
                        OFFSET   0.000000  19.566000   0.000000
                    }
                }
            }
            JOINT LeftCollar
            {
                OFFSET   3.911900  19.017000  -0.467063
                CHANNELS 3 Zrotation Xrotation Yrotation
                JOINT LeftShoulder
                {
                    OFFSET  10.383700   0.000000   0.000000
                    CHANNELS 3 Zrotation Xrotation Yrotation
                    JOINT LeftElbow
                    {
                        OFFSET  26.662100   0.001529   0.000325
                        CHANNELS 3 Zrotation Xrotation Yrotation
                        JOINT LeftWrist
                        {
                            OFFSET  28.869000  -0.000011  -0.000096
                            CHANNELS 3 Zrotation Xrotation Yrotation
                            JOINT LeftFinger0
                            {
                                OFFSET   2.044650  -2.323460   3.252850
                                CHANNELS 3 Zrotation Xrotation Yrotation
                                JOINT LeftFinger01
                                {
                                    OFFSET   3.088130   0.000000   0.000000
                                    CHANNELS 3 Zrotation Xrotation Yrotation
                                    JOINT LeftFinger02
                                    {
                                        OFFSET   2.639460   0.000000   0.000000
                                        CHANNELS 3 Zrotation Xrotation Yrotation
                                        End Site
                                        {
                                            OFFSET   2.582190   0.000000   0.000000
                                        }
                                    }
                                }
                            }
                            JOINT LeftFinger1
                            {
                                OFFSET   8.364480   0.000000   3.252850
                                CHANNELS 3 Zrotation Xrotation Yrotation
                                JOINT LeftFinger11
                                {
                                    OFFSET   4.646930   0.000000   0.000000
                                    CHANNELS 3 Zrotation Xrotation Yrotation
                                    JOINT LeftFinger12
                                    {
                                        OFFSET   2.323460   0.000000   0.000000
                                        CHANNELS 3 Zrotation Xrotation Yrotation
                                        End Site
                                        {
                                            OFFSET   2.273050   0.000000   0.000000
                                        }
                                    }
                                }
                            }
                            JOINT LeftFinger2
                            {
                                OFFSET   8.364480   0.000016   1.078090
                                CHANNELS 3 Zrotation Xrotation Yrotation
                                JOINT LeftFinger21
                                {
                                    OFFSET   5.111620   0.000000   0.000000
                                    CHANNELS 3 Zrotation Xrotation Yrotation
                                    JOINT LeftFinger22
                                    {
                                        OFFSET   2.788160   0.000017   0.000000
                                        CHANNELS 3 Zrotation Xrotation Yrotation
                                        End Site
                                        {
                                            OFFSET   2.727660   0.000000   0.000000
                                        }
                                    }
                                }
                            }
                            JOINT LeftFinger3
                            {
                                OFFSET   7.899780   0.000015  -1.078090
                                CHANNELS 3 Zrotation Xrotation Yrotation
                                JOINT LeftFinger31
                                {
                                    OFFSET   4.646920   0.000000   0.000000
                                    CHANNELS 3 Zrotation Xrotation Yrotation
                                    JOINT LeftFinger32
                                    {
                                        OFFSET   2.323470   0.000000   0.000000
                                        CHANNELS 3 Zrotation Xrotation Yrotation
                                        End Site
                                        {
                                            OFFSET   2.273050   0.000000   0.000000
                                        }
                                    }
                                }
                            }
                            JOINT LeftFinger4
                            {
                                OFFSET   7.435090   0.000000  -3.252850
                                CHANNELS 3 Zrotation Xrotation Yrotation
                                JOINT LeftFinger41
                                {
                                    OFFSET   3.717550   0.000000   0.000000
                                    CHANNELS 3 Zrotation Xrotation Yrotation
                                    JOINT LeftFinger42
                                    {
                                        OFFSET   1.858760   0.000000   0.000000
                                        CHANNELS 3 Zrotation Xrotation Yrotation
                                        End Site
                                        {
                                            OFFSET   1.818440   0.000000   0.000000
                                        }
                                    }
                                }
                            }
                        }
                    }
                }
            }
            JOINT RightCollar
            {
                OFFSET  -3.911900  19.017000  -0.467062
                CHANNELS 3 Zrotation Xrotation Yrotation
                JOINT RightShoulder
                {
                    OFFSET -10.383700   0.000015   0.000000
                    CHANNELS 3 Zrotation Xrotation Yrotation
                    JOINT RightElbow
                    {
                        OFFSET -26.662100   0.001341   0.000385
                        CHANNELS 3 Zrotation Xrotation Yrotation
                        JOINT RightWrist
                        {
                            OFFSET -28.869000   0.000025  -0.000080
                            CHANNELS 3 Zrotation Xrotation Yrotation
                            JOINT RightFinger0
                            {
                                OFFSET  -2.044650  -2.323490   3.252850
                                CHANNELS 3 Zrotation Xrotation Yrotation
                                JOINT RightFinger01
                                {
                                    OFFSET  -3.088130   0.000000   0.000000
                                    CHANNELS 3 Zrotation Xrotation Yrotation
                                    JOINT RightFinger02
                                    {
                                        OFFSET  -2.639460   0.000000   0.000000
                                        CHANNELS 3 Zrotation Xrotation Yrotation
                                        End Site
                                        {
                                            OFFSET  -2.582190   0.000000   0.000000
                                        }
                                    }
                                }
                            }
                            JOINT RightFinger1
                            {
                                OFFSET  -8.364480   0.000000   3.252850
                                CHANNELS 3 Zrotation Xrotation Yrotation
                                JOINT RightFinger11
                                {
                                    OFFSET  -4.646930   0.000000   0.000000
                                    CHANNELS 3 Zrotation Xrotation Yrotation
                                    JOINT RightFinger12
                                    {
                                        OFFSET  -2.323470   0.000000   0.000000
                                        CHANNELS 3 Zrotation Xrotation Yrotation
                                        End Site
                                        {
                                            OFFSET  -2.273050   0.000000   0.000000
                                        }
                                    }
                                }
                            }
                            JOINT RightFinger2
                            {
                                OFFSET  -8.364480   0.000000   1.078090
                                CHANNELS 3 Zrotation Xrotation Yrotation
                                JOINT RightFinger21
                                {
                                    OFFSET  -5.111610   0.000000   0.000000
                                    CHANNELS 3 Zrotation Xrotation Yrotation
                                    JOINT RightFinger22
                                    {
                                        OFFSET  -2.788160   0.000000   0.000000
                                        CHANNELS 3 Zrotation Xrotation Yrotation
                                        End Site
                                        {
                                            OFFSET  -2.727660   0.000000   0.000000
                                        }
                                    }
                                }
                            }
                            JOINT RightFinger3
                            {
                                OFFSET  -7.899780   0.000000  -1.078090
                                CHANNELS 3 Zrotation Xrotation Yrotation
                                JOINT RightFinger31
                                {
                                    OFFSET  -4.646920   0.000000   0.000000
                                    CHANNELS 3 Zrotation Xrotation Yrotation
                                    JOINT RightFinger32
                                    {
                                        OFFSET  -2.323470   0.000000   0.000000
                                        CHANNELS 3 Zrotation Xrotation Yrotation
                                        End Site
                                        {
                                            OFFSET  -2.273050   0.000000   0.000000
                                        }
                                    }
                                }
                            }
                            JOINT RightFinger4
                            {
                                OFFSET  -7.435090   0.000000  -3.252850
                                CHANNELS 3 Zrotation Xrotation Yrotation
                                JOINT RightFinger41
                                {
                                    OFFSET  -3.717550   0.000000   0.000000
                                    CHANNELS 3 Zrotation Xrotation Yrotation
                                    JOINT RightFinger42
                                    {
                                        OFFSET  -1.858770   0.000000   0.000000
                                        CHANNELS 3 Zrotation Xrotation Yrotation
                                        End Site
                                        {
                                            OFFSET  -1.818440   0.000000   0.000000
                                        }
                                    }
                                }
                            }
                        }
                    }
                }
            }
        }
    }
    JOINT LeftHip
    {
        OFFSET   9.783010   0.000000   0.000000
        CHANNELS 3 Zrotation Xrotation Yrotation
        JOINT LeftKnee
        {
            OFFSET   0.000070 -41.789100   0.000028
            CHANNELS 3 Zrotation Xrotation Yrotation
            JOINT LeftAnkle
            {
                OFFSET   0.000087 -41.133200  -0.000100
                CHANNELS 3 Zrotation Xrotation Yrotation
                JOINT LeftToe
                {
                    OFFSET   0.000000  -6.358960  14.674500
                    CHANNELS 3 Zrotation Xrotation Yrotation
                    End Site
                    {
                        OFFSET   0.000000   0.000000   3.913200
                    }
                }
            }
        }
    }
    JOINT RightHip
    {
        OFFSET  -9.783020   0.000000   0.000000
        CHANNELS 3 Zrotation Xrotation Yrotation
        JOINT RightKnee
        {
            OFFSET   0.000044 -41.789100  -0.000870
            CHANNELS 3 Zrotation Xrotation Yrotation
            JOINT RightAnkle
            {
                OFFSET  -0.000090 -41.133200  -0.000245
                CHANNELS 3 Zrotation Xrotation Yrotation
                JOINT RightToe
                {
                    OFFSET   0.000000  -6.358960  14.674500
                    CHANNELS 3 Zrotation Xrotation Yrotation
                    End Site
                    {
                        OFFSET   0.000000   0.000000   3.913200
                    }
                }
            }
        }
    }
}
MOTION
Frames: 4
Frame Time:   0.016667
 -0.684381  90.020900  -1.864170  -0.670768  -2.121690  -1.867070  -0.662832   3.152290   0.010857  -1.329290   6.304270   0.058433   1.348510   0.601471  -0.017883   2.216230   1.217340   9.969430  -6.871500  -3.080120   5.014280 -70.557300  19.114800   1.403420  -3.881510  -7.774450 -17.778800  14.252800  -4.540210  10.618100  41.046900  29.723800 -64.292000 -24.353900  -0.002702  -0.001167  -7.176990   0.005624  -0.000077 -32.832600   5.792550  -8.889760 -27.231900   0.001357  -0.003525 -19.062300   0.004007  -0.002479 -28.591900  -1.325150   2.429790 -37.660000  -0.000114  -0.011247 -25.081500  -0.000156   0.007336 -27.822200  -1.292670   2.447220 -31.101200  -0.000493  -0.003286 -20.713400   0.008527  -0.001080 -30.332800  -1.398460   2.388380 -45.543000  -0.001518  -0.008080 -30.331700  -0.002909   0.001347  10.788100   0.760269   9.615720  68.511400  12.716200   2.358180   1.213100  -6.874410  14.813900 -16.718100 -18.145500   1.275930 -39.701700  38.364400  75.107400  32.403100   0.001316  -0.000719  11.201600  -0.001233   0.001749  30.635100   1.400380   2.363040  25.088800   0.003713  -0.000795  17.562100  -0.000458  -0.005302  27.902900  -1.345450  -2.538990  31.566100   0.006219  -0.009965  21.023000   0.003095  -0.002576  28.271400  -3.356170  -6.211420  35.692900   0.003467   0.004592  23.771400   0.002984  -0.000606  37.035100  -4.264210  -5.628180  55.867100  -0.001948  -0.005379  37.207600   0.006358  -0.002265   1.006330   2.192990   3.779940   0.721543   1.602360  13.527700  -5.620400  -3.607470   6.015330  -0.000000   0.000000  -0.000000   0.817713   2.218370  -8.716510   0.529113   1.961170  -9.842780  -9.544210   0.847696   0.881923  -0.000000   0.000000  -0.000000
 -0.693832  90.020900  -1.868860  -0.671250  -2.137260  -1.867310  -0.669642   3.159520   0.023483  -1.343650   6.318550   0.084209   1.355020   0.605128  -0.017827   2.226890   1.224810   9.979330  -6.863790  -3.080310   4.993220 -70.560000  19.071900   1.403370  -3.884920  -7.823690 -17.780400  14.229100  -4.537170  10.610800  41.004500  29.661100 -64.224200 -24.369200  -0.002703  -0.001180  -7.184640   0.005629  -0.000076 -32.844800   5.775750  -8.859900 -27.240200   0.001351  -0.003522 -19.068100   0.004004  -0.002481 -28.590300  -1.343120   2.462670 -37.669300  -0.000119  -0.011249 -25.087700  -0.000160   0.007336 -27.820500  -1.310320   2.480270 -31.122700  -0.000498  -0.003286 -20.727800   0.008533  -0.001081 -30.347800  -1.418060   2.420300 -45.566400  -0.001522  -0.008086 -30.347300  -0.002913   0.001348  10.774900   0.765606   9.583560  68.597500  12.813100   2.495020   1.146270  -6.864140  14.727400 -16.759800 -18.125800   1.187100 -39.697800  38.396800  75.086700  32.432000   0.001327  -0.000774  11.216100  -0.001235   0.001739  30.638300   1.361840   2.297800  25.089600   0.003715  -0.000795  17.562700  -0.000451  -0.005303  27.900400  -1.372560  -2.590410  31.555900   0.006214  -0.009969  21.016200   0.003099  -0.002577  28.269900  -3.375380  -6.247320  35.687100   0.003471   0.004605  23.767500   0.002986  -0.000600  37.030900  -4.288740  -5.660730  55.867000  -0.001950  -0.005379  37.207500   0.006357  -0.002267   1.012200   2.208770   3.783250   0.721421   1.600190  13.527600  -5.628350  -3.601340   6.015280   0.000000   0.000000   0.000000   0.821989   2.244300  -8.716660   0.529415   1.942700  -9.871850  -9.545970   0.848444   0.907229  -0.000000   0.000000  -0.000000
 -0.709037  90.020800  -1.877190  -0.672159  -2.165610  -1.868920  -0.679872   3.172030   0.044224  -1.365340   6.343310   0.126508   1.365390   0.619362  -0.017749   2.243930   1.253760  10.004800  -6.856870  -3.080560   4.957270 -70.567800  19.003400   1.403110  -3.896020  -7.957490 -17.782800  14.192100  -4.534130  10.603600  40.956300  29.572300 -64.126200 -24.384500  -0.002706  -0.001193  -7.192280   0.005635  -0.000073 -32.860000   5.749110  -8.815260 -27.248400   0.001337  -0.003514 -19.073900   0.003997  -0.002487 -28.588000  -1.370050   2.512070 -37.678600  -0.000135  -0.011256 -25.093900  -0.000171   0.007334 -27.818000  -1.336730   2.529940 -31.144200  -0.000510  -0.003285 -20.742100   0.008550  -0.001084 -30.362000  -1.447110   2.468450 -45.589800  -0.001531  -0.008102 -30.362800  -0.002926   0.001351  10.750100   0.777756   9.527380  68.737000  12.957000   2.749210   1.041410  -6.854960  14.604300 -16.828600 -18.095200   1.038520 -39.737700  38.424100  75.051000  32.482800   0.001341  -0.000829  11.241400  -0.001236   0.001729  30.641400   1.323290   2.232560  25.091200   0.003718  -0.000795  17.563800  -0.000440  -0.005309  27.897900  -1.399670  -2.641830  31.545700   0.006200  -0.009975  21.009400   0.003106  -0.002580  28.270500  -3.394580  -6.283230  35.681300   0.003480   0.004638  23.763700   0.002991  -0.000585  37.030300  -4.313260  -5.693280  55.866900  -0.001951  -0.005380  37.207400   0.006356  -0.002273   1.022510   2.237710   3.789320   0.720957   1.596650  13.527500  -5.640000  -3.592360   6.015210  -0.000000   0.000000   0.000000   0.829928   2.282460  -8.716900   0.530329   1.924120  -9.919720  -9.550260   0.849188   0.953316   0.000000   0.000000  -0.000000
 -0.719860  90.020800  -1.884590  -0.673321  -2.193980  -1.877860  -0.685151   3.183230   0.059466  -1.376810   6.365520   0.157490   1.371990   0.647025  -0.017717   2.254840   1.309930  10.045900  -6.865690  -3.071800   4.925950 -70.579800  18.952100   1.401820  -3.919690  -8.183790 -17.782100  14.163100  -4.538800  10.610200  40.964800  29.548000 -64.052500 -24.380800  -0.002716  -0.001190  -7.190400   0.005631  -0.000035 -32.847700   5.726600  -8.785950 -27.235200   0.001319  -0.003503 -19.064600   0.003987  -0.002497 -28.586500  -1.387960   2.545260 -37.649500  -0.000159  -0.011267 -25.074500  -0.000188   0.007333 -27.816300  -1.354140   2.563390 -31.125500  -0.000528  -0.003284 -20.729600   0.008577  -0.001088 -30.346600  -1.465330   2.501480 -45.568100  -0.001545  -0.008128 -30.348300  -0.002948   0.001355  10.722000   0.795202   9.476550  68.834100  13.043200   3.012780   0.992770  -6.912390  14.546300 -16.875100 -18.071100   0.915851 -39.664300  38.303500  74.889800  32.533900   0.001342  -0.000815  11.267000  -0.001222   0.001732  30.643000   1.328080   2.240430  25.093000   0.003716  -0.000793  17.565100  -0.000435  -0.005323  27.898200  -1.395360  -2.633740  31.545800   0.006176  -0.009981  21.009500   0.003114  -0.002585  28.275300  -3.393940  -6.281720  35.718400   0.003494   0.004689  23.788400   0.002996  -0.000561  37.050400  -4.312810  -5.691570  55.894100  -0.001948  -0.005382  37.225400   0.006355  -0.002282   1.032450   2.268360   3.796610   0.719700   1.593390  13.527900  -5.645490  -3.587660   6.019610   0.000000   0.000000  -0.000000   0.839859   2.301870  -8.716350   0.526785   1.925380  -9.958340  -9.556340   0.847665   0.998911  -0.000000   0.000000   0.000000
